<svg xmlns="http://www.w3.org/2000/svg" viewBox="0 0 50 50"><defs><style>.cls-1{fill:#29abe2;}.cls-2{fill:#fff;}</style></defs><title>fav_icon-G</title><g id="Capa_2" data-name="Capa 2"><rect class="cls-1" x="0.38" y="-0.04" width="50" height="50" rx="25"/><path class="cls-2" d="M42.8,19l-4,2.51s-11.42-1.34-15.09-1-9.09,2.84-9.93,7.68c0,0-.91,2.17,1.09.91s8-2.66,12.76-2.33,14.3-.46,15.47-1.71a60.14,60.14,0,0,1-7.42.25c-4-.17-14.31-.13-14.31-.13s2.59-2.91,6-2.83,5.59.17,8.75.25,9.26-.33,9.26-.33v5.83a101.07,101.07,0,0,1-17,1.42c-8.09-.16-16.35-.16-20.6,2.09s-4.26-5.26.33-9.26,12.76-4.92,23.44-4.17S42.8,19,42.8,19Z"/></g></svg>